<svg width="297" height="477" viewBox="0 0 297 477" fill="none" xmlns="http://www.w3.org/2000/svg">
<g filter="url(#filter0_d_851_1119)">
<rect x="0.5" y="0.5" width="290.065" height="470.379" rx="8.5" fill="#141414" stroke="#4C4C4C"/>
<ellipse cx="145.532" cy="235.69" rx="59.8591" ry="59.7057" fill="#009688"/>
<rect x="103.804" y="237.237" width="13.6195" height="31.411" rx="2" fill="#11C1FC" stroke="black" stroke-width="2"/>
<rect width="6.04868" height="14.6506" transform="matrix(1 0 0 -1 141.501 222.125)" fill="#3DA312"/>
<path d="M120.736 209.216L128.733 243.071L133.808 264.553C134.189 266.166 135.805 267.166 137.418 266.787L166.277 260.004C167.89 259.625 168.888 258.011 168.507 256.398L155.064 199.489C154.683 197.876 153.067 196.877 151.454 197.256L122.595 204.038C120.982 204.417 119.984 206.031 120.364 207.644L120.736 209.216Z" fill="#986ADE"/>
<path d="M120.736 209.216L128.733 243.071M137.418 266.787L166.277 260.004C167.89 259.625 168.888 258.011 168.507 256.398L155.064 199.489C154.683 197.876 153.067 196.877 151.454 197.256L122.595 204.038C120.982 204.417 119.984 206.031 120.364 207.644L133.808 264.553C134.189 266.166 135.805 267.166 137.418 266.787Z" stroke="black" stroke-width="2"/>
<path d="M181.156 208.465L173.808 239.57L169.201 259.07C168.82 260.682 167.204 261.682 165.591 261.303L138.374 254.907C136.761 254.528 135.762 252.913 136.143 251.301L148.383 199.489C148.764 197.876 150.38 196.877 151.993 197.256L179.21 203.652C180.823 204.031 181.822 205.646 181.441 207.258L181.156 208.465Z" fill="#D374C2"/>
<path d="M181.156 208.465L173.808 239.57M165.591 261.303L138.374 254.907C136.761 254.528 135.762 252.913 136.143 251.301L148.383 199.489C148.764 197.876 150.38 196.877 151.993 197.256L179.21 203.652C180.823 204.031 181.822 205.646 181.441 207.258L169.201 259.07C168.82 260.682 167.204 261.682 165.591 261.303Z" stroke="black" stroke-width="2"/>
<rect width="6.04791" height="3.21208" transform="matrix(0.975098 -0.221776 0.222861 0.97485 122.201 208.625)" fill="#333333" fill-opacity="0.6"/>
<rect width="4.40475" height="3.21208" transform="matrix(-0.975098 -0.221776 -0.222861 0.97485 179.645 208.261)" fill="#333333" fill-opacity="0.6"/>
<rect width="6.04791" height="3.21208" transform="matrix(0.975098 -0.221776 0.222861 0.97485 131.012 206.622)" fill="#333333" fill-opacity="0.6"/>
<rect width="6.04791" height="3.21208" transform="matrix(-0.975098 -0.221776 -0.222861 0.97485 172.435 206.621)" fill="#333333" fill-opacity="0.6"/>
<path d="M134.363 200.933V236.745V259.557C134.363 261.214 135.706 262.557 137.363 262.557H167.012C168.669 262.557 170.012 261.214 170.012 259.557V199.182C170.012 197.525 168.669 196.182 167.012 196.182H137.363C135.706 196.182 134.363 197.525 134.363 199.182V200.933Z" fill="#B8DF58"/>
<path d="M134.363 200.933V236.745M137.363 262.557H167.012C168.669 262.557 170.012 261.214 170.012 259.557V199.182C170.012 197.525 168.669 196.182 167.012 196.182H137.363C135.706 196.182 134.363 197.525 134.363 199.182V259.557C134.363 261.214 135.706 262.557 137.363 262.557Z" stroke="black" stroke-width="2"/>
<rect x="142.487" y="223.438" width="6.28745" height="12.7986" fill="#307C4F"/>
<rect width="6.04868" height="13.6156" transform="matrix(1 0 0 -1 142.726 220.385)" fill="#3DA312"/>
<rect x="135.587" y="200.237" width="6.04868" height="2.98478" fill="#707070" fill-opacity="0.6"/>
<rect x="144.626" y="200.237" width="6.04868" height="2.98478" fill="#707070" fill-opacity="0.6"/>
<rect x="153.664" y="200.237" width="6.04868" height="2.98478" fill="#707070" fill-opacity="0.6"/>
<rect x="162.702" y="200.237" width="6.04868" height="2.98478" fill="#707070" fill-opacity="0.6"/>
<rect width="9.02715" height="33.5783" transform="matrix(1 0 0 -1 152.187 240.348)" fill="#3DA312" fill-opacity="0.5"/>
<path d="M164.728 222.317L164.728 231.293L153.098 240.348L148.655 235.49L164.728 222.317Z" fill="#307C4F"/>
<path d="M163.503 237.964L163.504 247.623L151.874 257.366L147.431 252.139L163.503 237.964Z" fill="#307C4F"/>
<path d="M117.149 262.262V240.744L125.564 233.342C125.972 234.639 126.849 237.463 127.094 238.378C127.4 239.523 127.859 239.599 128.777 239.599C129.695 239.599 153.87 239.523 155.935 239.599C158.001 239.675 159.531 241.505 159.531 243.567C159.531 246.161 157.312 246.738 155.247 246.814C158.1 246.815 160.343 246.823 160.908 246.848C162.667 246.924 163.891 248.221 164.044 250.358C164.197 252.495 162.208 253.715 160.908 253.715H158.307C159.684 253.715 160.831 255.928 160.908 257.683C160.984 259.438 158.689 260.964 157.312 260.964H154.405C154.89 261.397 155.874 262.735 155.935 264.627C156.012 266.993 153.64 267.985 151.804 267.985H126.406C122.275 267.985 120.897 266.001 120.285 265.543C119.796 265.176 117.99 263.203 117.149 262.262Z" fill="#AE825F"/>
<path d="M117.149 240.744V262.262C117.99 263.203 119.796 265.176 120.285 265.543C120.897 266.001 122.275 267.985 126.406 267.985C130.537 267.985 149.968 267.985 151.804 267.985C153.64 267.985 156.012 266.993 155.935 264.627C155.874 262.735 154.89 261.397 154.405 260.964H141.935C146.602 260.964 156.21 260.964 157.312 260.964C158.689 260.964 160.984 259.438 160.908 257.683C160.831 255.928 159.684 253.715 158.307 253.715C157.205 253.715 146.933 253.715 141.935 253.715C147.826 253.715 159.867 253.715 160.908 253.715C162.208 253.715 164.197 252.495 164.044 250.358C163.891 248.221 162.667 246.924 160.908 246.848C159.5 246.787 147.673 246.823 141.935 246.848C145.684 246.721 153.594 246.875 155.247 246.814C157.312 246.738 159.531 246.161 159.531 243.567C159.531 241.505 158.001 239.675 155.935 239.599C153.87 239.523 129.695 239.599 128.777 239.599C127.859 239.599 127.4 239.523 127.094 238.378C126.849 237.463 125.972 234.639 125.564 233.342L117.149 240.744Z" stroke="black" stroke-width="2"/>
</g>
<defs>
<filter id="filter0_d_851_1119" x="0" y="0" width="296.065" height="476.379" filterUnits="userSpaceOnUse" color-interpolation-filters="sRGB">
<feFlood flood-opacity="0" result="BackgroundImageFix"/>
<feColorMatrix in="SourceAlpha" type="matrix" values="0 0 0 0 0 0 0 0 0 0 0 0 0 0 0 0 0 0 127 0" result="hardAlpha"/>
<feOffset dx="3" dy="3"/>
<feGaussianBlur stdDeviation="1"/>
<feComposite in2="hardAlpha" operator="out"/>
<feColorMatrix type="matrix" values="0 0 0 0 0 0 0 0 0 0 0 0 0 0 0 0 0 0 0.35 0"/>
<feBlend mode="normal" in2="BackgroundImageFix" result="effect1_dropShadow_851_1119"/>
<feBlend mode="normal" in="SourceGraphic" in2="effect1_dropShadow_851_1119" result="shape"/>
</filter>
</defs>
</svg>
