<svg width="48" height="48" viewBox="0 0 48 48" fill="none" xmlns="http://www.w3.org/2000/svg">
<rect width="48" height="48" rx="4" fill="#1E1E1E"/>
<path d="M23.9352 9.71167L4.75464 13.146L11.105 31.225L23.9352 45.6753L36.8303 31.225L43.375 13.146L23.9352 9.71167Z" stroke="#7B7B7B" stroke-dasharray="2 2"/>
<path d="M4.75464 34.8538L11.0402 31.225L23.9352 9.71167L36.7655 31.225L43.1158 34.8538" stroke="#7B7B7B" stroke-dasharray="2 2"/>
<path d="M23.9351 2.13025V9.71177" stroke="#7B7B7B" stroke-dasharray="2 2"/>
<path d="M11.1697 31.2898H36.8303" stroke="#7B7B7B" stroke-dasharray="2 2"/>
<path d="M23.9352 38.2234L11.3641 16.5804L23.9352 2.19495L36.7007 16.5804L23.9352 38.2234Z" stroke="#EEEEEE"/>
<path d="M4.625 13.0164L24 2.19495L43.3102 13.0164V34.9186L24 45.8697L4.625 34.9186V13.0164Z" stroke="#EEEEEE"/>
<path d="M4.75464 13.1462L11.1698 16.6454H36.6359L43.375 13.1462" stroke="#EEEEEE"/>
<path d="M24 38.2235V45.8698" stroke="#EEEEEE"/>
<path d="M4.68976 34.8539L23.9352 38.1586L43.375 34.8539L36.7654 16.5804" stroke="#EEEEEE"/>
<path d="M4.81934 34.9187L11.3641 16.7749" stroke="#EEEEEE"/>
</svg>
