<svg width="10" height="16" viewBox="0 0 10 16" fill="none" xmlns="http://www.w3.org/2000/svg">
<path fill-rule="evenodd" clip-rule="evenodd" d="M8.2856 0.0170999C8.56708 -0.0381712 8.85816 0.0422105 9.07136 0.234095C9.30222 0.423173 9.43824 0.704268 9.44319 1.00266C9.42783 1.30722 9.27841 1.58935 9.03501 1.77312L7.58013 2.93839C7.48443 3.00471 7.42231 3.10938 7.40995 3.22516C7.39149 3.32575 7.41846 3.42933 7.48357 3.50813C8.55304 4.71713 8.77304 6.45774 8.038 7.89485C7.10886 9.75503 5.03642 10.5542 3.03759 9.84585C2.93033 9.80783 2.81364 9.80547 2.70493 9.83918C2.55586 9.8864 2.50275 9.95875 2.40314 10.0944L2.3933 10.1078L1.76622 10.9442C1.76622 10.9442 1.23855 11.601 2.07116 11.5675C4.08911 11.4881 4.61582 11.4881 5.69694 11.5608C7.45774 11.6812 8.23395 12.8293 8.23395 13.7441C8.23395 14.8262 7.54378 15.9991 5.69505 15.9991C4.30228 15.9647 3.45724 15.9561 2.01667 15.9791C1.81089 15.9824 1.61885 15.9879 1.46011 15.9924C1.30846 15.9967 1.18711 16 1.11333 16C0.639189 16 0.0149758 15.8758 0.00732641 15.2879C0.00159224 14.8023 0.423154 14.5413 0.747212 14.5069C1.03353 14.4764 1.29057 14.5111 1.57313 14.5494C1.74147 14.5721 1.919 14.5961 2.11704 14.6083C2.24037 14.6157 2.36088 14.6244 2.48466 14.6333C2.83861 14.6589 3.21929 14.6865 3.76887 14.6914C4.05382 14.6949 4.27482 14.6986 4.45204 14.7015C4.91573 14.7094 5.07984 14.7122 5.30596 14.6914C6.13762 14.6169 6.5267 14.2842 6.5267 13.7737C6.5267 13.2375 6.13762 12.9315 5.39488 12.8312C4.35207 12.6896 3.8412 12.7224 2.91489 12.782C2.60318 12.802 2.24443 12.8251 1.80255 12.8456C1.39724 12.8647 0.169833 12.8628 0.014021 11.8505C-0.0213502 11.5732 -0.0347337 11.1067 0.552205 10.3009L1.05215 9.63172C1.29208 9.30481 1.44025 9.03335 1.08752 8.59267C1.08752 8.59267 0.827508 8.281 0.740518 8.1673C-0.0691445 7.10909 -0.26702 5.44768 0.442272 4.09121C1.49378 2.0838 4.04227 1.25119 6.02196 2.37055C6.19116 2.46614 6.31447 2.50634 6.45884 2.47954C6.59302 2.45769 6.63937 2.36831 6.70074 2.24992C6.71454 2.22328 6.72909 2.19516 6.7456 2.16601C6.74825 2.15969 6.90641 1.85626 7.10207 1.48079C7.2615 1.17484 7.44612 0.820683 7.59158 0.540945C7.73036 0.269156 7.98618 0.0760693 8.2856 0.0170999ZM2.85023 8.82877C4.08622 9.431 5.45797 8.96738 6.35272 7.18173C7.25414 5.38269 6.90428 3.77482 5.6587 3.16684C4.00019 2.35813 2.595 3.88761 2.06637 4.93914C1.16302 6.73818 1.58841 8.19692 2.8311 8.81824L2.85023 8.82877Z" fill="#999999"/>
</svg>
