<svg width="298" height="478" viewBox="0 0 298 478" fill="none" xmlns="http://www.w3.org/2000/svg">
<g filter="url(#filter0_d_851_1035)">
<path d="M282.961 0.5C288.208 0.5 292.457 4.75329 292.452 10L292.047 462.488C292.042 467.735 287.785 471.988 282.538 471.988H9.99135C4.74465 471.988 0.495167 467.735 0.49987 462.488L0.905506 10C0.91021 4.75329 5.16732 0.5 10.414 0.5H282.961Z" fill="url(#paint0_linear_851_1035)" stroke="#4C4C4C"/>
<path d="M190.509 241.284L96.0073 287.651V219.7L190.509 167.338V241.284Z" fill="#163CAA"/>
<path d="M217.074 261.446L183.847 279.776L148.702 261.446L183.847 244.338L217.074 261.446Z" fill="#8CD6D2"/>
<path d="M148.266 250.946L113.98 269.276L77.7163 250.946L113.98 233.838L148.266 250.946Z" fill="url(#paint1_linear_851_1035)"/>
<path d="M194.646 187.244V283.494H99.2734V187.244H194.646ZM115.387 267.307H178.533V203.432H115.387V267.307Z" fill="white"/>
<path d="M184.848 192.645L148.502 211.525L114.298 192.645L152.379 175.213L184.848 192.645Z" fill="url(#paint2_linear_851_1035)"/>
<path d="M149.56 304.713L148.702 262.275L183.106 279.713V304.713H149.56Z" fill="#163CAA" fill-opacity="0.62"/>
<path d="M207.058 277.281L163.073 300.338V219.637L207.058 198.4V277.281Z" fill="#2764D3" fill-opacity="0.5"/>
<path d="M77.7163 292.228V251.775L112.991 269.754V305.15H104.974L77.7163 292.228Z" fill="#163CAA"/>
<path d="M115.168 234.188V193.15L148.701 211.389V251.775L115.168 234.188Z" fill="url(#paint3_linear_851_1035)"/>
<path d="M139.993 272.794L104.718 292.026L105.255 227.626L139.993 211.526V272.794Z" fill="url(#paint4_linear_851_1035)" fill-opacity="0.6"/>
<path d="M139.557 267.963V254.003C139.557 253.665 139.75 253.358 140.053 253.213L185.008 231.735L185.101 231.697C185.322 231.622 185.565 231.638 185.776 231.745L227.92 253.223C228.349 253.441 228.52 253.968 228.302 254.399C228.085 254.83 227.561 255.002 227.132 254.783L185.37 233.5L141.299 254.556V267.963C141.299 268.446 140.909 268.838 140.428 268.838C139.947 268.838 139.557 268.446 139.557 267.963Z" fill="#D9D9D9"/>
<path d="M132.645 174.863C133.078 174.652 133.599 174.834 133.809 175.269C134.018 175.704 133.837 176.228 133.404 176.438L92.903 196.126C92.47 196.336 91.9489 196.154 91.7394 195.719C91.53 195.284 91.7113 194.761 92.1443 194.55L132.645 174.863Z" fill="#D9D9D9"/>
<path d="M89.8776 239.431C90.0945 239.326 90.3549 239.418 90.459 239.636C90.563 239.853 90.4712 240.115 90.2544 240.219L66.0855 251.87L96.3011 266.727C96.4421 266.796 96.5351 266.937 96.5444 267.094C96.5536 267.251 96.4774 267.402 96.3453 267.487L88.2879 272.706C88.0858 272.837 87.816 272.778 87.6857 272.575C87.5554 272.372 87.6137 272.101 87.8158 271.97L95.2251 267.172L64.896 252.259C64.7461 252.186 64.6512 252.033 64.6519 251.865C64.6525 251.698 64.7485 251.545 64.8989 251.473L89.8776 239.431ZM105.588 207.713V189.65C105.588 189.409 105.783 189.213 106.024 189.213C106.264 189.213 106.459 189.409 106.459 189.65V207.713C106.459 207.955 106.264 208.151 106.024 208.151C105.783 208.151 105.588 207.955 105.588 207.713Z" fill="#D9D9D9"/>
<path d="M183.082 180.021C183.325 179.604 183.859 179.464 184.274 179.708L196.61 186.97C196.884 187.131 197.049 187.43 197.041 187.749C197.032 188.068 196.85 188.357 196.568 188.503L150.405 212.304C149.978 212.525 149.453 212.355 149.233 211.925C149.013 211.495 149.182 210.968 149.61 210.747L194.361 187.674L183.393 181.218C182.978 180.974 182.839 180.438 183.082 180.021Z" fill="#D9D9D9"/>
</g>
<defs>
<filter id="filter0_d_851_1035" x="0" y="0" width="297.953" height="477.488" filterUnits="userSpaceOnUse" color-interpolation-filters="sRGB">
<feFlood flood-opacity="0" result="BackgroundImageFix"/>
<feColorMatrix in="SourceAlpha" type="matrix" values="0 0 0 0 0 0 0 0 0 0 0 0 0 0 0 0 0 0 127 0" result="hardAlpha"/>
<feOffset dx="3" dy="3"/>
<feGaussianBlur stdDeviation="1"/>
<feComposite in2="hardAlpha" operator="out"/>
<feColorMatrix type="matrix" values="0 0 0 0 0 0 0 0 0 0 0 0 0 0 0 0 0 0 0.35 0"/>
<feBlend mode="normal" in2="BackgroundImageFix" result="effect1_dropShadow_851_1035"/>
<feBlend mode="normal" in="SourceGraphic" in2="effect1_dropShadow_851_1035" result="shape"/>
</filter>
<linearGradient id="paint0_linear_851_1035" x1="146.687" y1="1" x2="146.687" y2="471.488" gradientUnits="userSpaceOnUse">
<stop stop-color="#163CAA"/>
<stop offset="1" stop-color="#2764D3"/>
</linearGradient>
<linearGradient id="paint1_linear_851_1035" x1="84.9691" y1="251.557" x2="148.238" y2="255.113" gradientUnits="userSpaceOnUse">
<stop stop-color="#8CD6D2"/>
<stop offset="0.731631" stop-color="#2764D3"/>
</linearGradient>
<linearGradient id="paint2_linear_851_1035" x1="126.128" y1="180.879" x2="172.982" y2="209.887" gradientUnits="userSpaceOnUse">
<stop stop-color="#8CD6D2"/>
<stop offset="0.731631" stop-color="#2764D3"/>
</linearGradient>
<linearGradient id="paint3_linear_851_1035" x1="131.935" y1="193.15" x2="131.935" y2="251.775" gradientUnits="userSpaceOnUse">
<stop stop-color="#2764D3"/>
<stop offset="1" stop-color="#163CAA"/>
</linearGradient>
<linearGradient id="paint4_linear_851_1035" x1="122.356" y1="275.549" x2="122.356" y2="339.655" gradientUnits="userSpaceOnUse">
<stop stop-color="#8CD6D2"/>
<stop offset="1" stop-color="#49706E" stop-opacity="0"/>
</linearGradient>
</defs>
</svg>
