<svg width="297" height="474" viewBox="0 0 297 474" fill="none" xmlns="http://www.w3.org/2000/svg">
<g filter="url(#filter0_d_866_227)">
<rect x="0.5" y="0.5" width="290.065" height="467.141" rx="8.5" fill="#009669" stroke="#4C4C4C"/>
<path d="M158.508 89.5737L159.588 95.3356H145.011L158.508 89.5737Z" fill="#7ED8BD"/>
<path d="M144.992 95.3011L133.537 171.361L166.069 176.63L159.654 95.3011H144.992Z" fill="#58CEAB"/>
<path d="M166.071 176.615L177.179 166.092L167.214 96.3321L159.653 95.3011L166.071 176.615Z" fill="#167B5D"/>
<path d="M158.515 89.6216L159.611 95.3356L167.214 96.3851L158.515 89.6216Z" fill="#188967"/>
<path d="M148.835 119.3C158.201 116.142 166.792 115.185 173.411 116.172C180.043 117.161 184.58 120.075 186.091 124.556C187.606 129.051 185.859 134.464 181.291 139.605C176.735 144.734 169.436 149.507 160.084 152.66C150.74 155.811 142.12 156.194 135.465 154.637C128.797 153.076 124.184 149.594 122.663 145.084C121.152 140.602 122.927 135.777 127.524 131.219C132.118 126.664 139.462 122.46 148.835 119.3Z" stroke="#7ED8BD"/>
<path d="M146.867 111.256C155.68 108.285 164.278 107.51 171.045 108.637C177.835 109.768 182.647 112.783 184.156 117.26C185.666 121.737 183.662 127.049 178.943 132.061C174.241 137.055 166.929 141.645 158.116 144.617C149.304 147.588 140.705 148.363 133.939 147.236C127.148 146.105 122.337 143.091 120.828 138.614C119.318 134.137 121.321 128.825 126.04 123.812C130.743 118.818 138.055 114.228 146.867 111.256Z" stroke="#7ED8BD"/>
<path d="M144.992 95.3011L137.618 143.8L162.993 138.482L159.654 95.3011H144.992Z" fill="#58CEAB"/>
<path d="M162.993 137.829L172.508 133.258L167.214 96.3321L159.653 95.3011L162.993 137.829Z" fill="#167B5D"/>
</g>
<defs>
<filter id="filter0_d_866_227" x="0" y="0" width="296.065" height="473.141" filterUnits="userSpaceOnUse" color-interpolation-filters="sRGB">
<feFlood flood-opacity="0" result="BackgroundImageFix"/>
<feColorMatrix in="SourceAlpha" type="matrix" values="0 0 0 0 0 0 0 0 0 0 0 0 0 0 0 0 0 0 127 0" result="hardAlpha"/>
<feOffset dx="3" dy="3"/>
<feGaussianBlur stdDeviation="1"/>
<feComposite in2="hardAlpha" operator="out"/>
<feColorMatrix type="matrix" values="0 0 0 0 0 0 0 0 0 0 0 0 0 0 0 0 0 0 0.35 0"/>
<feBlend mode="normal" in2="BackgroundImageFix" result="effect1_dropShadow_866_227"/>
<feBlend mode="normal" in="SourceGraphic" in2="effect1_dropShadow_866_227" result="shape"/>
</filter>
</defs>
</svg>
